<?xml version="1.0" encoding="utf-8"?>
<!-- Generator: Adobe Illustrator 21.1.0, SVG Export Plug-In . SVG Version: 6.00 Build 0)  -->
<svg version="1.1" id="Слой_1" xmlns="http://www.w3.org/2000/svg" xmlns:xlink="http://www.w3.org/1999/xlink" x="0px" y="0px"
	 viewBox="0 0 14 14" style="enable-background:new 0 0 14 14;" xml:space="preserve">
<style type="text/css">
	.st0{fill:url(#SVGID_1_);}
	.st1{fill:#030303;}
	.st2{fill:url(#SVGID_2_);}
</style>
<g>
	<linearGradient id="SVGID_1_" gradientUnits="userSpaceOnUse" x1="3.1848" y1="6.3696" x2="3.1848" y2="0">
		<stop  offset="0" style="stop-color:#697478"/>
		<stop  offset="0.438" style="stop-color:#1B1E21"/>
		<stop  offset="1" style="stop-color:#070808"/>
	</linearGradient>
	<path class="st0" d="M3.2,6.4C1.4,6.4,0,4.9,0,3.2C0,1.4,1.4,0,3.2,0c1.8,0,3.2,1.4,3.2,3.2C6.4,4.9,4.9,6.4,3.2,6.4L3.2,6.4z"/>
	<circle class="st1" cx="3.2" cy="3.2" r="1.9"/>
</g>
<g>
	<linearGradient id="SVGID_2_" gradientUnits="userSpaceOnUse" x1="10.8152" y1="14" x2="10.8152" y2="7.6289">
		<stop  offset="0" style="stop-color:#697478"/>
		<stop  offset="0.438" style="stop-color:#1B1E21"/>
		<stop  offset="1" style="stop-color:#070808"/>
	</linearGradient>
	<path class="st2" d="M10.8,14c-1.8,0-3.2-1.4-3.2-3.2c0-1.8,1.4-3.2,3.2-3.2c1.8,0,3.2,1.4,3.2,3.2C14,12.6,12.6,14,10.8,14
		L10.8,14z"/>
	<circle class="st1" cx="10.8" cy="10.8" r="1.9"/>
</g>
</svg>
